<mxfile host="65bd71144e">
    <diagram id="LyBfUGpdDp9gzjKc-nIH" name="Page-1">
        <mxGraphModel dx="1029" dy="424" grid="1" gridSize="10" guides="1" tooltips="1" connect="1" arrows="1" fold="1" page="1" pageScale="1" pageWidth="850" pageHeight="1100" background="#ffffff" math="0" shadow="0">
            <root>
                <mxCell id="0"/>
                <mxCell id="1" parent="0"/>
                <mxCell id="8" value="" style="group" parent="1" vertex="1" connectable="0">
                    <mxGeometry x="240" y="30" width="70.00000000000003" height="90" as="geometry"/>
                </mxCell>
                <mxCell id="6" value="" style="shape=image;verticalLabelPosition=bottom;labelBackgroundColor=default;verticalAlign=top;aspect=fixed;imageAspect=0;image=https://upload.wikimedia.org/wikipedia/commons/3/31/Python-logo.png;dashed=0;strokeColor=default;align=center;fontFamily=Helvetica;fontSize=12;fontColor=default;fillColor=#F3F8FC;gradientColor=#B4D2F0;" parent="8" vertex="1">
                    <mxGeometry x="3.5200000000000102" width="62.96" height="69" as="geometry"/>
                </mxCell>
                <mxCell id="7" value="main.py" style="text;html=1;align=center;verticalAlign=middle;resizable=0;points=[];autosize=1;strokeColor=none;fillColor=none;" parent="8" vertex="1">
                    <mxGeometry y="60" width="70" height="30" as="geometry"/>
                </mxCell>
                <mxCell id="9" value="" style="group" parent="1" vertex="1" connectable="0">
                    <mxGeometry x="30.000000000000014" y="185.5" width="82.4" height="99" as="geometry"/>
                </mxCell>
                <mxCell id="3" value="Reddit" style="text;html=1;align=center;verticalAlign=middle;resizable=0;points=[];autosize=1;strokeColor=none;fillColor=none;" parent="9" vertex="1">
                    <mxGeometry x="11.199999999999989" y="69" width="60" height="30" as="geometry"/>
                </mxCell>
                <mxCell id="4" value="" style="dashed=0;outlineConnect=0;html=1;align=center;labelPosition=center;verticalLabelPosition=bottom;verticalAlign=top;shape=mxgraph.webicons.reddit;fillColor=#F3F8FC;gradientColor=#B4D2F0" parent="9" vertex="1">
                    <mxGeometry width="82.4" height="69" as="geometry"/>
                </mxCell>
                <mxCell id="10" style="edgeStyle=none;html=1;entryX=0;entryY=0.5;entryDx=0;entryDy=0;" parent="1" target="6" edge="1">
                    <mxGeometry relative="1" as="geometry">
                        <mxPoint x="120" y="224" as="sourcePoint"/>
                    </mxGeometry>
                </mxCell>
                <mxCell id="11" value="Fetch news subreddit" style="edgeLabel;html=1;align=center;verticalAlign=middle;resizable=0;points=[];" parent="10" vertex="1" connectable="0">
                    <mxGeometry x="-0.109" y="-1" relative="1" as="geometry">
                        <mxPoint as="offset"/>
                    </mxGeometry>
                </mxCell>
                <mxCell id="15" style="edgeStyle=none;html=1;exitX=1;exitY=0.5;exitDx=0;exitDy=0;" parent="1" source="6" target="12" edge="1">
                    <mxGeometry relative="1" as="geometry"/>
                </mxCell>
                <mxCell id="16" value="Store Fetched Posts" style="edgeLabel;html=1;align=center;verticalAlign=middle;resizable=0;points=[];" parent="15" vertex="1" connectable="0">
                    <mxGeometry x="0.1044" y="1" relative="1" as="geometry">
                        <mxPoint x="-29" as="offset"/>
                    </mxGeometry>
                </mxCell>
                <mxCell id="18" style="edgeStyle=none;html=1;exitX=0;exitY=0.5;exitDx=0;exitDy=0;startArrow=block;startFill=1;" parent="1" source="17" target="4" edge="1">
                    <mxGeometry relative="1" as="geometry"/>
                </mxCell>
                <mxCell id="19" value="Fetch Posts" style="edgeLabel;html=1;align=center;verticalAlign=middle;resizable=0;points=[];" parent="18" vertex="1" connectable="0">
                    <mxGeometry x="0.0361" relative="1" as="geometry">
                        <mxPoint x="-1" as="offset"/>
                    </mxGeometry>
                </mxCell>
                <mxCell id="21" style="edgeStyle=none;html=1;exitX=1;exitY=0.5;exitDx=0;exitDy=0;" parent="1" source="17" target="20" edge="1">
                    <mxGeometry relative="1" as="geometry"/>
                </mxCell>
                <mxCell id="26" value="&lt;span style=&quot;&quot;&gt;Feed to ETL Pipeline&lt;/span&gt;" style="edgeLabel;html=1;align=center;verticalAlign=middle;resizable=0;points=[];labelBackgroundColor=none;fontColor=default;" parent="21" vertex="1" connectable="0">
                    <mxGeometry x="-0.1208" y="-4" relative="1" as="geometry">
                        <mxPoint x="-11" as="offset"/>
                    </mxGeometry>
                </mxCell>
                <mxCell id="17" value="" style="shape=image;verticalLabelPosition=bottom;labelBackgroundColor=default;verticalAlign=top;aspect=fixed;imageAspect=0;image=https://www.shutterstock.com/image-vector/api-application-interface-icon-simple-600nw-2188533787.jpg;fontColor=light-dark(#000000,#000000);" parent="1" vertex="1">
                    <mxGeometry x="470" y="340" width="70.00000000000003" height="70" as="geometry"/>
                </mxCell>
                <mxCell id="20" value="hhh" style="sketch=0;outlineConnect=0;fontColor=#ffffff;fillColor=#1ba1e2;strokeColor=#006EAF;dashed=0;verticalLabelPosition=bottom;verticalAlign=top;align=center;html=1;fontSize=12;fontStyle=0;aspect=fixed;pointerEvents=1;shape=mxgraph.aws4.iot_analytics_pipeline;" parent="1" vertex="1">
                    <mxGeometry x="720" y="210" width="78" height="42" as="geometry"/>
                </mxCell>
                <mxCell id="22" value="" style="group;strokeColor=none;" parent="1" vertex="1" connectable="0">
                    <mxGeometry x="470" y="30" width="90" height="87" as="geometry"/>
                </mxCell>
                <mxCell id="12" value="" style="image;aspect=fixed;html=1;points=[];align=center;fontSize=12;image=img/lib/azure2/databases/Azure_Database_PostgreSQL_Server.svg;" parent="22" vertex="1">
                    <mxGeometry x="21" width="48" height="64" as="geometry"/>
                </mxCell>
                <mxCell id="13" value="Postgres DB" style="text;html=1;align=center;verticalAlign=middle;resizable=0;points=[];autosize=1;strokeColor=none;fillColor=none;" parent="22" vertex="1">
                    <mxGeometry y="57" width="90" height="30" as="geometry"/>
                </mxCell>
                <mxCell id="24" value="" style="edgeStyle=none;html=1;" parent="1" source="12" target="20" edge="1">
                    <mxGeometry relative="1" as="geometry"/>
                </mxCell>
                <mxCell id="25" value="Feed to ETL Pipeline" style="edgeLabel;html=1;align=center;verticalAlign=middle;resizable=0;points=[];" parent="24" vertex="1" connectable="0">
                    <mxGeometry x="-0.0476" y="1" relative="1" as="geometry">
                        <mxPoint as="offset"/>
                    </mxGeometry>
                </mxCell>
            </root>
        </mxGraphModel>
    </diagram>
</mxfile>